<?xml version="1.0" encoding="UTF-8" standalone="no"?>
<svg
   xmlns:dc="http://purl.org/dc/elements/1.1/"
   xmlns:cc="http://creativecommons.org/ns#"
   xmlns:rdf="http://www.w3.org/1999/02/22-rdf-syntax-ns#"
   xmlns:svg="http://www.w3.org/2000/svg"
   xmlns="http://www.w3.org/2000/svg"
   xmlns:sodipodi="http://sodipodi.sourceforge.net/DTD/sodipodi-0.dtd"
   xmlns:inkscape="http://www.inkscape.org/namespaces/inkscape"
   version="1.0"
   width="64px"
   height="64px"
   viewBox="0 0 128 128"
   xml:space="preserve"
   id="svg12"
   sodipodi:docname="ajax.svg"
   inkscape:version="0.92.5 (2060ec1f9f, 2020-04-08)"><metadata
     id="metadata18"><rdf:RDF><cc:Work
         rdf:about=""><dc:format>image/svg+xml</dc:format><dc:type
           rdf:resource="http://purl.org/dc/dcmitype/StillImage" /></cc:Work></rdf:RDF></metadata><defs
     id="defs16" /><sodipodi:namedview
     pagecolor="#ffffff"
     bordercolor="#666666"
     borderopacity="1"
     objecttolerance="10"
     gridtolerance="10"
     guidetolerance="10"
     inkscape:pageopacity="0"
     inkscape:pageshadow="2"
     inkscape:window-width="1920"
     inkscape:window-height="1020"
     id="namedview14"
     showgrid="false"
     inkscape:zoom="3.6875"
     inkscape:cx="3.5254237"
     inkscape:cy="32"
     inkscape:window-x="0"
     inkscape:window-y="0"
     inkscape:window-maximized="1"
     inkscape:current-layer="svg12" /><g
     id="g10"><path
       d="M82.4 32.2a37.52 37.52 0 0 0-55 25.13L16.97 42.97.92 52.44A64.42 64.42 0 0 1 101.07 12.2l-.26 17.93z"
       fill="#000000"
       fill-opacity="1"
       id="path4" /><path
       d="M82.4 32.2a37.52 37.52 0 0 0-55 25.13L16.97 42.97.92 52.44A64.42 64.42 0 0 1 101.07 12.2l-.26 17.93z"
       fill="#000000"
       fill-opacity="1"
       transform="rotate(120 64 64)"
       id="path6" /><path
       d="M82.4 32.2a37.52 37.52 0 0 0-55 25.13L16.97 42.97.92 52.44A64.42 64.42 0 0 1 101.07 12.2l-.26 17.93z"
       fill="#000000"
       fill-opacity="1"
       transform="rotate(240 64 64)"
       id="path8" /><animateTransform
       attributeName="transform"
       type="rotate"
       from="0 64 64"
       to="120 64 64"
       dur="800ms"
       repeatCount="indefinite" /></g></svg>
